<svg width="27" height="35" viewBox="0 0 27 35" fill="none" xmlns="http://www.w3.org/2000/svg">
<path d="M20.7636 3.68182V3.78182H20.8636H24.5455C25.1699 3.78182 25.7688 4.02989 26.2104 4.47145C26.6519 4.91301 26.9 5.5119 26.9 6.13636V31.9091C26.9 32.5336 26.6519 33.1324 26.2104 33.574C25.7688 34.0156 25.1699 34.2636 24.5455 34.2636H2.45455C1.83008 34.2636 1.23119 34.0156 0.78963 33.574C0.348067 33.1324 0.1 32.5336 0.1 31.9091V6.13636C0.1 5.5119 0.348067 4.91301 0.78963 4.47145C1.23119 4.02989 1.83008 3.78182 2.45455 3.78182H6.13636H6.23636V3.68182V2.45455C6.23636 1.83008 6.48443 1.23119 6.92599 0.78963C7.36756 0.348067 7.96644 0.1 8.59091 0.1H18.4091C19.0336 0.1 19.6324 0.348067 20.074 0.78963C20.5156 1.23119 20.7636 1.83008 20.7636 2.45455V3.68182ZM8.59091 2.35455H8.49091V2.45455V7.36364V7.46364H8.59091H18.4091H18.5091V7.36364V2.45455V2.35455H18.4091H8.59091ZM24.5455 32.0091H24.6455V31.9091V6.13636V6.03636H24.5455H20.8636H20.7636V6.13636V9.71818H6.23636V6.13636V6.03636H6.13636H2.45455H2.35455V6.13636V31.9091V32.0091H2.45455H24.5455Z" fill="white" stroke="white" stroke-width="0.2"/>
</svg>
